<svg width="34" height="34" viewBox="0 0 34 34" fill="none" xmlns="http://www.w3.org/2000/svg">
<path fill-rule="evenodd" clip-rule="evenodd" d="M4.24937 5.09998C3.5452 5.09998 2.97437 5.67081 2.97437 6.37498C2.97437 7.07914 3.5452 7.64998 4.24937 7.64998H5.34232L8.35068 21.7753C8.53175 22.6255 9.28267 23.2333 10.1519 23.2333H25.2062C26.0086 23.2333 26.7187 22.7137 26.9615 21.9489L30.906 9.52345C31.1733 8.68135 30.5931 7.67813 29.5612 7.67813H7.9555L7.81249 7.00664C7.5757 5.89483 6.59374 5.09998 5.45699 5.09998H4.24937ZM10.7253 20.6833L8.49859 10.2281H28.0069L24.6879 20.6833H10.7253ZM12.0416 25.8542C12.0416 26.8322 11.2488 27.625 10.2708 27.625C9.29275 27.625 8.49992 26.8322 8.49992 25.8542C8.49992 24.8762 9.29275 24.0833 10.2708 24.0833C11.2488 24.0833 12.0416 24.8762 12.0416 25.8542ZM26.9166 25.8542C26.9166 26.8322 26.1238 27.625 25.1458 27.625C24.1677 27.625 23.3749 26.8322 23.3749 25.8542C23.3749 24.8762 24.1677 24.0833 25.1458 24.0833C26.1238 24.0833 26.9166 24.8762 26.9166 25.8542Z" fill="#363431"/>
</svg>
