<svg width="48" height="28" viewBox="0 0 48 28" fill="none" xmlns="http://www.w3.org/2000/svg">
<path d="M1 26.5609H46.8967" stroke="#B4A55A" stroke-width="1.6" stroke-miterlimit="10" stroke-linecap="round" stroke-linejoin="round"/>
<path d="M5.1344 22.0176C5.1344 13.1811 12.0216 6.01331 20.5167 6.01331C29.0119 6.01331 35.8915 13.1811 35.8915 22.0176" stroke="#B4A55A" stroke-width="1.6" stroke-miterlimit="10" stroke-linejoin="round"/>
<path d="M20.2656 5.83885C21.6019 5.83885 22.6852 4.75556 22.6852 3.41924C22.6852 2.08293 21.6019 0.999634 20.2656 0.999634C18.9292 0.999634 17.8459 2.08293 17.8459 3.41924C17.8459 4.75556 18.9292 5.83885 20.2656 5.83885Z" stroke="#B4A55A" stroke-width="1.6" stroke-miterlimit="10" stroke-linejoin="round"/>
<path d="M3.90466 26.6596V21.7218H36.7325V26.6596" stroke="#B4A55A" stroke-width="1.6" stroke-miterlimit="10" stroke-linejoin="round"/>
<path d="M22.9824 10.9996C22.9824 10.9996 28.8911 11.2879 31.599 18.9411" stroke="#B4A55A" stroke-width="1.6" stroke-miterlimit="10" stroke-linecap="round" stroke-linejoin="round"/>
<path d="M38.2046 9.32787C38.2046 14.4098 40.0022 18.5285 42.2246 18.5285C44.447 18.5285 46.2447 14.4098 46.2447 9.32787C46.2447 7.5454 46.0171 5.89187 45.6379 4.48865H38.8114C38.8114 4.48865 38.2046 7.88515 38.2046 9.32787Z" stroke="#B4A55A" stroke-width="1.6" stroke-miterlimit="10" stroke-linejoin="round"/>
<path d="M42.2244 18.4298V26.5609" stroke="#B4A55A" stroke-width="1.6" stroke-miterlimit="10" stroke-linejoin="round"/>
</svg>
