<svg width="26" height="26" viewBox="0 0 26 26" fill="none" xmlns="http://www.w3.org/2000/svg">
<path d="M16.3292 14.5167C15.3724 15.5279 15.3724 16.539 14.4155 16.539C13.4587 16.539 12.5019 15.5279 11.545 14.5167C10.5882 13.5056 9.63132 12.4945 9.63132 11.4834C9.63132 10.4723 10.5882 10.4723 11.545 9.46119C12.5019 8.45008 9.63132 5.41675 8.67448 5.41675C7.71764 5.41675 5.80396 8.45008 5.80396 8.45008C5.80396 10.4723 7.77027 14.5724 9.63132 16.539C11.4914 18.5056 15.3724 20.5834 17.2861 20.5834C17.2861 20.5834 20.1566 18.5612 20.1566 17.5501C20.1566 16.539 17.2861 13.5056 16.3292 14.5167Z" fill="#363431"/>
</svg>
