<svg width="42" height="42" viewBox="0 0 42 42" fill="none" xmlns="http://www.w3.org/2000/svg">
<rect x="2.55" y="11.3" width="36.9" height="22.9" rx="1.2" stroke="#B4A55A" stroke-width="1.6"/>
<path d="M2.625 23.625L14.875 11.375" stroke="#B4A55A" stroke-width="1.6"/>
<path d="M27.125 34.125L39.375 21.875" stroke="#B4A55A" stroke-width="1.6"/>
<path d="M12.7065 5.63622C14.1763 6.36096 17.5 10.5 17.5 10.5C17.5 10.5 12.005 10.4678 10.5352 9.74305C9.06543 9.01832 8.36394 7.52053 8.96522 6.37706C9.56649 5.23359 11.2367 4.91149 12.7065 5.63622Z" stroke="#B4A55A" stroke-width="1.6" stroke-miterlimit="10"/>
<path d="M20.5435 5.63622C19.0737 6.36096 15.75 10.5 15.75 10.5C15.75 10.5 21.245 10.4678 22.7148 9.74305C24.1846 9.01832 24.8861 7.52053 24.2848 6.37706C23.6835 5.23359 22.0133 4.91149 20.5435 5.63622Z" stroke="#B4A55A" stroke-width="1.6" stroke-miterlimit="10"/>
</svg>
