<svg width="48" height="48" viewBox="0 0 48 48" fill="none" xmlns="http://www.w3.org/2000/svg">
<path d="M19.7194 9.4914C20.3427 9.37115 20.97 9.25013 21.596 9.11334C21.8015 9.0983 22.0089 9.08289 22.218 9.06735C23.9605 8.93788 25.8209 8.79963 27.6806 8.79963C32.2932 8.79963 36.4915 9.69235 38.5973 13.6452C39.3667 16.2071 39.3269 18.9411 38.9406 21.7351C38.6694 23.6963 38.2384 25.6296 37.8126 27.5392C37.6241 28.3843 37.4367 29.2247 37.2647 30.0609C36.2335 33.4153 35.6337 37.0549 35.5668 40.6313C33.0648 41.0618 30.6403 41.1796 28.1406 41.1796C26.7013 41.1796 25.2463 41.142 23.7394 41.103L23.6187 41.0999C22.0898 41.0604 20.5091 41.0206 18.8583 41.0196L13.9461 40.308C13.9528 39.8504 13.9649 39.3835 13.9773 38.9074L13.9778 38.8869C13.9965 38.165 14.0156 37.4229 14.0156 36.6821C14.0156 35.2075 13.9407 33.6974 13.6235 32.2749C13.3201 30.7391 12.9494 29.1988 12.5807 27.6716L12.5613 27.5913C12.1971 26.0825 11.8359 24.5863 11.5349 23.0894C10.93 20.0824 10.5798 17.126 10.9389 14.2013C11.8184 12.3244 13.3634 11.2804 15.2684 10.5892C16.675 10.0788 18.1851 9.78742 19.7194 9.4914Z" stroke="#B4A55A" stroke-width="1.6"/>
<path d="M35.8192 32.5996C28.4992 33.3196 21.3992 33.1996 14.1992 32.4796" stroke="#B4A55A" stroke-width="1.6" stroke-miterlimit="10"/>
<path d="M33.2402 19.7396C33.1402 24.4596 31.6602 28.4796 31.1602 32.8596" stroke="#B4A55A" stroke-width="1.6" stroke-miterlimit="10"/>
<path d="M24.8203 19.5197C25.0203 23.8797 25.3203 28.2597 25.1203 32.8597" stroke="#B4A55A" stroke-width="1.6" stroke-miterlimit="10"/>
<path d="M16.1992 19.5197C17.0992 23.9997 18.1792 28.4797 19.3792 32.8597" stroke="#B4A55A" stroke-width="1.6" stroke-miterlimit="10"/>
</svg>
