<svg width="42" height="32" viewBox="0 0 42 32" fill="none" xmlns="http://www.w3.org/2000/svg">
<path fill-rule="evenodd" clip-rule="evenodd" d="M2.24961 9.09998C1.54545 9.09998 0.974609 9.67081 0.974609 10.375C0.974609 11.0791 1.54545 11.65 2.24961 11.65H3.34256L6.35092 25.7753C6.532 26.6255 7.28291 27.2333 8.15219 27.2333H23.2064C24.0089 27.2333 24.719 26.7137 24.9618 25.9489L28.9063 13.5234C29.1736 12.6814 28.5933 11.6781 27.5614 11.6781H5.95575L5.81274 11.0066C5.57594 9.89483 4.59398 9.09998 3.45723 9.09998H2.24961ZM8.72555 24.6833L6.49884 14.2281H26.0072L22.6881 24.6833H8.72555ZM10.0418 29.8542C10.0418 30.8322 9.249 31.625 8.271 31.625C7.29299 31.625 6.50016 30.8322 6.50016 29.8542C6.50016 28.8762 7.29299 28.0833 8.271 28.0833C9.249 28.0833 10.0418 28.8762 10.0418 29.8542ZM24.9168 29.8542C24.9168 30.8322 24.124 31.625 23.146 31.625C22.168 31.625 21.3752 30.8322 21.3752 29.8542C21.3752 28.8762 22.168 28.0833 23.146 28.0833C24.124 28.0833 24.9168 28.8762 24.9168 29.8542Z" fill="#363431"/>
<circle cx="32" cy="10" r="9.5" fill="white" stroke="#B4A55A"/>
</svg>
