<svg width="30" height="30" viewBox="0 0 30 30" fill="none" xmlns="http://www.w3.org/2000/svg">
    <path fill-rule="evenodd" clip-rule="evenodd"
        d="M12.625 23.25C6.75697 23.25 2 18.493 2 12.625C2 6.75697 6.75697 2 12.625 2C18.493 2 23.25 6.75697 23.25 12.625C23.25 15.1086 22.3979 17.3932 20.97 19.2023L27.1338 25.3661C27.622 25.8543 27.622 26.6457 27.1338 27.1339C26.6457 27.6221 25.8542 27.6221 25.3661 27.1339L19.2022 20.9701C17.3931 22.3979 15.1086 23.25 12.625 23.25ZM12.625 20.75C17.1123 20.75 20.75 17.1123 20.75 12.625C20.75 8.13769 17.1123 4.5 12.625 4.5C8.13769 4.5 4.5 8.13769 4.5 12.625C4.5 17.1123 8.13769 20.75 12.625 20.75Z"
        fill="#363431" />
    <mask id="mask0" mask-type="alpha" maskUnits="userSpaceOnUse" x="2" y="2" width="26" height="26">
        <path fill-rule="evenodd" clip-rule="evenodd"
            d="M12.625 23.25C6.75697 23.25 2 18.493 2 12.625C2 6.75697 6.75697 2 12.625 2C18.493 2 23.25 6.75697 23.25 12.625C23.25 15.1086 22.3979 17.3932 20.97 19.2023L27.1338 25.3661C27.622 25.8543 27.622 26.6457 27.1338 27.1339C26.6457 27.6221 25.8542 27.6221 25.3661 27.1339L19.2022 20.9701C17.3931 22.3979 15.1086 23.25 12.625 23.25ZM12.625 20.75C17.1123 20.75 20.75 17.1123 20.75 12.625C20.75 8.13769 17.1123 4.5 12.625 4.5C8.13769 4.5 4.5 8.13769 4.5 12.625C4.5 17.1123 8.13769 20.75 12.625 20.75Z"
            fill="white" />
    </mask>
    <g mask="url(#mask0)">
    </g>
</svg>