<svg class="icon-close" width="32" height="32" viewBox="0 0 32 32" fill="none" xmlns="http://www.w3.org/2000/svg">
    <path d="M16.4857 14.5993L24.0271 7.05667C24.5484 6.53667 25.3937 6.53667 25.9137 7.05667C26.4351 7.578 26.4351 8.422 25.9137 8.942L18.3711 16.4847L25.9137 24.0273C26.4351 24.5487 26.4351 25.3927 25.9137 25.9127C25.3937 26.434 24.5484 26.434 24.0271 25.9127L16.4857 18.3713L8.94308 25.9127C8.42308 26.434 7.57775 26.434 7.05775 25.9127C6.53641 25.3927 6.53641 24.5487 7.05775 24.0273L14.5991 16.4847L7.05775 8.942C6.53641 8.422 6.53641 7.578 7.05775 7.05667C7.57775 6.53667 8.42308 6.53667 8.94308 7.05667L16.4857 14.5993Z" fill="#363431"/>
</svg>