<svg viewBox="0 0 245 71" fill="none"
                    xmlns="http://www.w3.org/2000/svg">
                    <path
                        d="M36.612 24.3519C36.612 34.4455 28.4125 42.6291 18.2993 42.6291C8.1862 42.6291 0 34.4322 0 24.3519C0 14.2715 8.19948 6.07465 18.3126 6.07465C28.4258 6.07465 36.612 14.2583 36.612 24.3519Z"
                        fill="#A59157" />
                    <path
                        d="M156.215 12.1495V11.022C156.215 3.63422 156.973 1.73753 160.003 1.73753C160.973 1.73753 161.837 2.4405 161.837 3.19653C161.837 3.4618 161.73 3.74033 161.504 4.27088C161.132 4.97385 161.026 5.50439 161.026 6.10125C161.026 7.98468 162.488 9.44368 164.428 9.44368C166.541 9.44368 167.99 7.87857 167.99 5.71661C167.99 2.42724 164.534 0 159.724 0C153.837 0 150.315 3.44853 150.315 9.33757V12.1495H146.208V14.0992H150.315V49.6589H156.202V14.0992H160.641V12.1495H156.215ZM172.295 11.6189C165.053 11.6189 160.667 16.4734 160.667 24.405C160.667 32.3366 165.039 37.1911 172.295 37.1911C179.538 37.1911 183.977 32.3366 183.977 24.405C183.977 16.4734 179.538 11.6189 172.295 11.6189ZM172.295 35.4668C168.242 35.4668 166.727 32.4958 166.727 24.405C166.727 16.3673 168.242 13.3432 172.295 13.3432C176.402 13.3432 177.917 16.3673 177.917 24.405C177.917 32.4958 176.402 35.4668 172.295 35.4668ZM197.518 11.6189C190.276 11.6189 185.89 16.4734 185.89 24.405C185.89 32.3366 190.276 37.1911 197.518 37.1911C204.761 37.1911 209.2 32.3366 209.2 24.405C209.2 16.4734 204.761 11.6189 197.518 11.6189ZM197.518 35.4668C193.465 35.4668 191.95 32.4958 191.95 24.405C191.95 16.3673 193.465 13.3432 197.518 13.3432C201.625 13.3432 203.14 16.3673 203.14 24.405C203.14 32.4958 201.625 35.4668 197.518 35.4668ZM221.187 0.66318C221.346 1.10088 221.399 1.36615 221.399 1.57837C221.399 1.73753 221.346 2.06912 221.187 2.4405H224.695C226.861 2.4405 227.565 3.40874 227.565 6.22062V14.0992C225.559 12.428 223.778 11.725 221.506 11.725C215.18 11.725 211.233 16.4203 211.233 23.9806C211.233 31.9653 215.074 37.1513 220.961 37.1513C223.831 37.1513 226.316 35.8515 228.097 33.3712C229.227 35.7454 231.991 37.3105 234.914 37.3105C236.802 37.3105 238.755 36.6075 240.429 35.3607C242.051 34.0609 243.3 32.4427 244.921 29.2595C244.111 29.2064 243.951 29.1003 243.406 28.5565C241.572 32.3366 239.194 34.4323 236.815 34.4323C234.383 34.4323 233.466 33.0794 233.466 29.4717V0.66318H221.187ZM222.436 34.7639C219.14 34.7639 217.359 31.1429 217.359 24.405C217.359 17.2825 219.034 13.8339 222.502 13.8339C225.479 13.8339 227.579 16.102 227.579 19.3383V28.9412C227.565 32.1775 225.306 34.7639 222.436 34.7639Z"
                        fill="#A59157" />
                    <path
                        d="M56.8252 13.6615C55.1507 12.1494 53.4231 11.4995 50.938 11.4995C44.9313 11.4995 40.9844 16.5131 40.9844 24.1264C40.9844 31.8989 45.0376 37.1248 51.0975 37.1248C53.2105 37.1248 54.4996 36.634 56.8252 35.175V41.7007C56.772 42.9475 56.6657 44.1279 56.3866 45.2553C55.8418 47.6826 53.9016 49.3007 51.5759 49.3007C49.5693 49.3007 48.227 48.1733 48.227 46.5552C48.227 46.2899 48.2802 46.1175 48.3865 45.8522L48.546 45.4145C48.9314 44.6054 49.0377 43.9555 49.0377 43.1995C49.0377 41.2099 47.5227 39.7509 45.4097 39.7509C43.0309 39.7509 41.4628 41.3691 41.4628 43.8494C41.4628 48.2264 45.4097 51.0781 51.4696 51.0781C58.8717 51.0781 62.7123 47.1388 62.7123 39.4724V11.9903H56.8252V13.6615ZM52.7188 34.8699C49.1573 34.8699 47.0443 30.9307 47.0443 23.9673C47.0443 17.0569 48.825 13.7676 52.5593 13.7676C55.3235 13.7676 56.8252 15.598 56.8252 18.8873V30.1083C56.8252 33.0396 55.2571 34.8699 52.7188 34.8699ZM76.7192 11.6189C69.4766 11.6189 65.0911 16.4733 65.0911 24.405C65.0911 32.3366 69.4633 37.1911 76.7192 37.1911C83.9619 37.1911 88.4005 32.3366 88.4005 24.405C88.4005 16.4733 83.9619 11.6189 76.7192 11.6189ZM76.7192 35.4668C72.666 35.4668 71.151 32.4958 71.151 24.405C71.151 16.3672 72.666 13.3431 76.7192 13.3431C80.8256 13.3431 82.3406 16.3672 82.3406 24.405C82.3406 32.4958 80.8256 35.4668 76.7192 35.4668ZM101.942 11.6189C94.6996 11.6189 90.3142 16.4733 90.3142 24.405C90.3142 32.3366 94.6863 37.1911 101.942 37.1911C109.185 37.1911 113.624 32.3366 113.624 24.405C113.624 16.4733 109.198 11.6189 101.942 11.6189ZM101.942 35.4668C97.8891 35.4668 96.3741 32.4958 96.3741 24.405C96.3741 16.3672 97.8891 13.3431 101.942 13.3431C106.049 13.3431 107.564 16.3672 107.564 24.405C107.564 32.4958 106.062 35.4668 101.942 35.4668ZM125.624 0.663147C125.783 1.10085 125.836 1.36612 125.836 1.57833C125.836 1.7375 125.783 2.06909 125.624 2.44047H129.132C131.298 2.44047 132.003 3.40871 132.003 6.22059V14.0992C129.996 12.428 128.215 11.725 125.943 11.725C119.617 11.725 115.67 16.4203 115.67 23.9805C115.67 31.9652 119.511 37.1513 125.398 37.1513C128.268 37.1513 130.753 35.8515 132.534 33.3712C133.664 35.7453 136.428 37.3105 139.352 37.3105C141.239 37.3105 143.192 36.6075 144.867 35.3607C146.488 34.0609 147.737 32.4427 149.358 29.2594C148.548 29.2064 148.388 29.1003 147.843 28.5565C146.01 32.3366 143.631 34.4323 141.252 34.4323C138.82 34.4323 137.903 33.0794 137.903 29.4717V0.663147H125.624ZM126.86 34.7638C123.564 34.7638 121.783 31.1429 121.783 24.405C121.783 17.2824 123.458 13.8339 126.913 13.8339C129.89 13.8339 131.989 16.102 131.989 19.3383V28.9411C132.003 32.1774 129.73 34.7638 126.86 34.7638Z"
                        fill="black" />
                    <path
                        d="M28.5854 16.2744C26.1535 11.7913 20.2132 12.4943 15.748 12.8126C12.7579 13.4227 9.07675 13.6747 7.66809 16.7254C7.07007 20.9565 8.75781 25.2804 9.56845 29.4452C10.0336 31.3021 9.79437 33.4508 9.76779 35.3475L13.8077 35.9178C18.3792 35.8913 22.18 36.329 26.4193 35.5332C26.3927 32.9468 26.8179 30.3471 27.602 27.9464C28.4525 24.2193 29.7947 20.028 28.5854 16.2744ZM24.8113 34.0609C20.572 34.4455 15.9074 34.2201 11.708 33.8089C11.5486 33.1324 11.6814 32.5223 11.7479 31.9255C16.1865 32.3764 20.5188 32.4029 25.0106 32.0183L24.8113 34.0609ZM26.5522 24.9223L25.2365 30.2675C24.7448 30.4001 24.2797 30.4001 23.7614 30.4267C24.1202 27.6678 25.2099 25.0814 25.2365 22.1237C25.2365 21.8716 24.9442 21.7788 24.7448 21.7125C24.2797 21.7788 23.695 21.5533 23.4956 22.0706C23.4292 25.0549 22.3527 27.6413 21.8477 30.4665L19.4557 30.5328L19.3627 30.4001C19.5221 27.4821 19.2696 24.7366 19.1367 21.9778C19.1102 21.8186 19.0038 21.6196 18.8709 21.5003C18.3527 21.6594 17.7281 21.434 17.4623 21.9778C17.4623 24.8029 17.7945 27.6148 17.6218 30.4665L15.2563 30.4001C14.3659 27.6413 13.6483 24.7896 12.9572 21.938C12.7313 21.235 12.0403 21.8053 11.5751 21.739C10.9505 21.991 11.4422 22.6011 11.4422 23.0521C11.9605 25.4926 12.5851 27.8933 13.3426 30.2277L11.5087 29.989C10.6848 26.1425 9.36911 22.5216 9.56845 18.4231C9.56845 17.3355 10.1266 16.3009 11.1765 15.9163C14.7911 14.696 19.1234 14.3777 23.0704 14.7889C24.293 14.9481 25.4359 15.4255 26.2598 16.354C28.0273 18.9404 26.9774 22.0706 26.5522 24.9223Z"
                        fill="white" />
                    <path
                        d="M70.3932 70.6684L66.3931 65.2436H65.7685V70.6684H64.7319V59.2882H66.8183C69.2902 59.2882 70.5128 60.3095 70.5128 62.3919C70.5128 64.1692 69.3832 65.2436 67.5493 65.2436L71.6424 70.6684H70.3932ZM65.7685 64.3947H66.8051C68.5725 64.3947 69.4098 63.9835 69.4098 62.3654C69.4098 60.7339 68.6257 60.2034 66.8051 60.2034H65.7685V64.3947Z"
                        fill="black" />
                    <path
                        d="M73.1577 59.2882H78.7924V60.2697H74.1943V63.8244H78.7924V64.8059H74.1943V69.7001H78.7924V70.6684H73.1577V59.2882Z"
                        fill="black" />
                    <path
                        d="M81.3572 68.281C81.6761 69.4084 82.5665 70.0451 83.6828 70.0451C85.1181 70.0451 85.9818 69.1697 85.9818 67.6443C85.9818 66.2384 85.1579 65.7211 83.8157 65.0181C82.0216 64.0764 80.9585 63.3469 80.9585 61.7553C80.9585 60.1504 82.1545 59.023 83.9087 59.023C85.0516 59.023 85.9021 59.5138 86.4204 60.4687L85.623 60.9462C85.3041 60.2963 84.6662 59.9382 83.8423 59.9382C82.7127 59.9382 82.0084 60.6544 82.0084 61.7686C82.0084 63.148 83.0449 63.4663 84.5333 64.2754C86.2078 65.1773 86.9785 65.9201 86.9785 67.6311C86.9785 69.6737 85.7028 70.9602 83.6429 70.9602C82.1412 70.9602 81.0781 70.2175 80.4668 68.7452L81.3572 68.281Z"
                        fill="black" />
                    <path d="M91.2974 60.2697H88.1611V59.2882H95.4835V60.2697H92.334V70.6684H91.2974V60.2697Z"
                        fill="black" />
                    <path
                        d="M100.653 58.8506L105.45 70.6684H104.321L102.872 66.822H98.2211L96.7061 70.6684H95.6562L100.653 58.8506ZM102.527 65.9333L100.587 60.986L98.5666 65.9333H102.527Z"
                        fill="black" />
                    <path
                        d="M107.696 59.2882V66.7158C107.696 68.9441 108.706 70.045 110.819 70.045C112.919 70.045 113.929 68.9441 113.929 66.7158V59.2882H114.965V66.3842C114.965 69.4614 113.61 70.9602 110.819 70.9602C108.028 70.9602 106.673 69.4481 106.673 66.3842V59.2882H107.696Z"
                        fill="black" />
                    <path
                        d="M123.418 70.6684L119.418 65.2436H118.793V70.6684H117.756V59.2882H119.843C122.315 59.2882 123.537 60.3095 123.537 62.3919C123.537 64.1692 122.408 65.2436 120.574 65.2436L124.667 70.6684H123.418ZM118.793 64.3947H119.829C121.597 64.3947 122.434 63.9835 122.434 62.3654C122.434 60.7339 121.65 60.2034 119.829 60.2034H118.793V64.3947Z"
                        fill="black" />
                    <path
                        d="M129.624 58.8506L134.421 70.6684H133.292L131.843 66.822H127.192L125.677 70.6684H124.627L129.624 58.8506ZM131.498 65.9333L129.557 60.986L127.537 65.9333H131.498Z"
                        fill="black" />
                    <path
                        d="M135.697 58.8108L143.763 68.3341V59.2883H144.733V71L136.667 61.4768V70.6684H135.697V58.8108Z"
                        fill="black" />
                    <path d="M149.611 60.2697H146.461V59.2882H153.783V60.2697H150.647V70.6684H149.611V60.2697Z"
                        fill="black" />
                    <path
                        d="M165.451 59.978C162.594 59.978 160.667 62.1134 160.667 65.111C160.667 67.8831 162.674 70.0053 165.451 70.0053C167.99 70.0053 169.77 68.3341 169.797 65.9333H165.863V65.0447H170.926C170.926 65.0977 170.926 65.1508 170.926 65.2038C170.926 68.785 168.8 70.9602 165.345 70.9602C161.89 70.9602 159.538 68.5463 159.538 64.9916C159.538 61.5564 161.916 59.023 165.292 59.023C167.551 59.023 169.265 59.8321 170.169 61.49L169.425 62.14C168.521 60.734 167.139 59.978 165.451 59.978Z"
                        fill="black" />
                    <path d="M174.169 59.2882H173.133V70.6551H174.169V59.2882Z" fill="black" />
                    <path d="M177 59.2882H182.648V60.2697H178.037V63.8244H182.475V64.8059H178.037V70.6684H177V59.2882Z"
                        fill="black" />
                    <path d="M187.02 60.2697H183.871V59.2882H191.193V60.2697H188.057V70.6684H187.02V60.2697Z"
                        fill="black" />
                    <path
                        d="M203.06 59.9514C200.083 59.9514 198.09 62.0471 198.09 64.9916C198.09 68.029 200.176 70.0185 202.914 70.0185C204.216 70.0185 205.492 69.5808 206.595 68.7054L206.582 69.9124C205.479 70.6154 204.15 70.9735 202.967 70.9735C199.538 70.9735 196.974 68.5728 196.974 64.9916C196.974 61.49 199.592 59.0363 202.967 59.0363C204.416 59.0363 205.665 59.4342 206.675 60.23L206.648 61.3706C205.532 60.4289 204.402 59.9514 203.06 59.9514Z"
                        fill="black" />
                    <path
                        d="M212.349 58.8506L217.147 70.6684H216.017L214.569 66.822H209.917L208.402 70.6684H207.353L212.349 58.8506ZM214.236 65.9333L212.296 60.986L210.276 65.9333H214.236Z"
                        fill="black" />
                    <path
                        d="M224.097 70.6684L220.097 65.2436H219.473V70.6684H218.436V59.2882H220.522C222.994 59.2882 224.217 60.3095 224.217 62.3919C224.217 64.1692 223.087 65.2436 221.253 65.2436L225.346 70.6684H224.097ZM219.473 64.3947H220.509C222.277 64.3947 223.101 63.9835 223.101 62.3654C223.101 60.7339 222.317 60.2034 220.509 60.2034H219.473V64.3947Z"
                        fill="black" />
                    <path
                        d="M226.848 59.2882H228.616C230.582 59.2882 232.084 59.2882 233.307 60.031C234.795 60.9329 235.646 62.697 235.646 64.9783C235.646 67.0474 234.941 68.6656 233.719 69.6073C232.416 70.6153 230.928 70.6551 229.094 70.6551C228.935 70.6551 228.775 70.6551 228.616 70.6551H226.848V59.2882ZM228.815 69.7797C229.028 69.7797 229.227 69.7797 229.426 69.7797C230.862 69.7797 231.978 69.7532 232.842 69.1298C233.931 68.3472 234.556 66.9015 234.556 64.9783C234.556 63.4264 234.144 62.1797 233.386 61.3573C232.337 60.1901 231.034 60.1636 229.121 60.1636C229.028 60.1636 228.908 60.1636 228.815 60.1636H227.885V69.793H228.815V69.7797Z"
                        fill="black" />
                </svg>